<svg width="66" height="288" viewBox="0 0 66 288" fill="none" xmlns="http://www.w3.org/2000/svg">
<path d="M1.5 1H18L55.5 197L65 253.5C60.7845 263.738 53.4954 283.223 54.779 286.895C55.8763 287.276 56.2155 287.5 55.5 287.5C55.152 287.5 54.9164 287.288 54.779 286.895C50.3558 285.359 33.6149 281.27 24 279C25.5 263 30.4 226.3 38 207.5C45.6 188.7 41.1667 173 38 167.5L1.5 1Z" fill="#D9D9D9"/>
<path d="M18 1H1.5L38 167.5C41.1667 173 45.6 188.7 38 207.5C30.4 226.3 25.5 263 24 279C36 281.833 59.1 287.5 55.5 287.5C51.9 287.5 60.3333 264.833 65 253.5L55.5 197L18 1Z" stroke="black"/>
</svg>
